<mxfile host="app.diagrams.net" modified="2023-05-16T20:43:54.302Z" agent="Mozilla/5.0 (Macintosh; Intel Mac OS X 10_15_7) AppleWebKit/537.36 (KHTML, like Gecko) Chrome/112.0.0.0 Safari/537.36" etag="dzJ_LiPZXLraZa0WnzZ7" version="21.2.9" type="device">
  <diagram name="Page-1" id="KFI5XZhFHwPKIvO9P8tG">
    <mxGraphModel dx="1749" dy="1973" grid="1" gridSize="10" guides="1" tooltips="1" connect="1" arrows="1" fold="1" page="1" pageScale="1" pageWidth="850" pageHeight="1100" math="0" shadow="0">
      <root>
        <mxCell id="0" />
        <mxCell id="1" parent="0" />
        <mxCell id="J5jHvOlifS9xlVqefVMf-1" value="&lt;font style=&quot;font-size: 18px;&quot;&gt;fileWalker class&lt;/font&gt;" style="whiteSpace=wrap;html=1;aspect=fixed;" vertex="1" parent="1">
          <mxGeometry x="60" y="430" width="270" height="270" as="geometry" />
        </mxCell>
        <mxCell id="J5jHvOlifS9xlVqefVMf-2" value="&lt;span style=&quot;font-size: 10pt; font-family: &amp;quot;Fira Mono&amp;quot;, monospace; color: rgb(0, 81, 124); background-color: transparent; font-weight: 700; font-variant-numeric: normal; font-variant-east-asian: normal; font-variant-alternates: normal; vertical-align: baseline;&quot;&gt;&amp;lt;&amp;lt;Interface&amp;gt;&amp;gt; FileVisitor&lt;/span&gt;&lt;span id=&quot;docs-internal-guid-1f1fa93a-7fff-f0c0-f0a0-06245eabd08e&quot;&gt;&lt;/span&gt;" style="rounded=0;whiteSpace=wrap;html=1;" vertex="1" parent="1">
          <mxGeometry x="60" y="40" width="290" height="110" as="geometry" />
        </mxCell>
        <mxCell id="J5jHvOlifS9xlVqefVMf-5" value="" style="endArrow=classic;html=1;rounded=0;exitX=0.5;exitY=1;exitDx=0;exitDy=0;entryX=0.5;entryY=0;entryDx=0;entryDy=0;" edge="1" parent="1" source="J5jHvOlifS9xlVqefVMf-2" target="J5jHvOlifS9xlVqefVMf-6">
          <mxGeometry width="50" height="50" relative="1" as="geometry">
            <mxPoint x="180" y="150" as="sourcePoint" />
            <mxPoint x="180" y="250" as="targetPoint" />
          </mxGeometry>
        </mxCell>
        <mxCell id="J5jHvOlifS9xlVqefVMf-6" value="&lt;div style=&quot;text-align: left;&quot;&gt;&lt;span style=&quot;background-color: initial;&quot;&gt;&lt;br&gt;&lt;/span&gt;&lt;/div&gt;&lt;div style=&quot;text-align: left;&quot;&gt;&lt;span style=&quot;background-color: initial;&quot;&gt;&lt;br&gt;&lt;/span&gt;&lt;/div&gt;&lt;div style=&quot;border-color: var(--border-color); text-align: left;&quot;&gt;- visitFile(Path file, BasicFileAtributes attr) :&amp;nbsp;&lt;span style=&quot;background-color: initial;&quot;&gt;FileVisitResult&lt;/span&gt;&lt;/div&gt;&lt;div style=&quot;border-color: var(--border-color); text-align: left;&quot;&gt;&lt;span style=&quot;background-color: initial;&quot;&gt;&lt;br&gt;&lt;/span&gt;&lt;/div&gt;&lt;div style=&quot;text-align: left;&quot;&gt;&lt;span style=&quot;background-color: initial;&quot;&gt;&amp;nbsp;- postVisitDirectory(Path dir, IOException):&amp;nbsp;&lt;/span&gt;&lt;/div&gt;FileVisitResult&lt;div style=&quot;text-align: left;&quot;&gt;&lt;span style=&quot;background-color: initial;&quot;&gt;&lt;br&gt;&lt;/span&gt;&lt;/div&gt;&lt;div style=&quot;text-align: left;&quot;&gt;&lt;span style=&quot;background-color: initial;&quot;&gt;preVisitDirectory(Path dir, BasicFileAttributes attrs) :&amp;nbsp;&lt;/span&gt;&lt;/div&gt;FileVisitResult&amp;nbsp;&lt;div style=&quot;text-align: left;&quot;&gt;&lt;span style=&quot;background-color: initial;&quot;&gt;&lt;br&gt;&lt;/span&gt;&lt;/div&gt;&lt;div style=&quot;text-align: left;&quot;&gt;&lt;span style=&quot;background-color: initial;&quot;&gt;- visitFileFailed(Path file, IOException exc) :&amp;nbsp;&lt;/span&gt;&lt;/div&gt;FileVisitResult&amp;nbsp;&lt;div style=&quot;text-align: left;&quot;&gt;&lt;span style=&quot;background-color: initial;&quot;&gt;&lt;br&gt;&lt;/span&gt;&lt;/div&gt;&lt;div style=&quot;text-align: left;&quot;&gt;&lt;span style=&quot;background-color: initial;&quot;&gt;&lt;br&gt;&lt;/span&gt;&lt;/div&gt;" style="rounded=0;whiteSpace=wrap;html=1;" vertex="1" parent="1">
          <mxGeometry x="60" y="150" width="290" height="170" as="geometry" />
        </mxCell>
        <mxCell id="J5jHvOlifS9xlVqefVMf-13" value="Main(driver)" style="rounded=0;whiteSpace=wrap;html=1;" vertex="1" parent="1">
          <mxGeometry x="290" y="-190" width="240" height="60" as="geometry" />
        </mxCell>
        <mxCell id="J5jHvOlifS9xlVqefVMf-22" value="" style="endArrow=classic;html=1;rounded=0;exitX=0.5;exitY=1;exitDx=0;exitDy=0;entryX=0.5;entryY=0;entryDx=0;entryDy=0;" edge="1" parent="1" source="J5jHvOlifS9xlVqefVMf-13" target="J5jHvOlifS9xlVqefVMf-2">
          <mxGeometry width="50" height="50" relative="1" as="geometry">
            <mxPoint x="540" y="290" as="sourcePoint" />
            <mxPoint x="590" y="240" as="targetPoint" />
          </mxGeometry>
        </mxCell>
        <mxCell id="J5jHvOlifS9xlVqefVMf-33" value="&amp;nbsp;ArrayList&amp;lt;Path&amp;gt; files" style="rounded=0;whiteSpace=wrap;html=1;" vertex="1" parent="1">
          <mxGeometry x="60" y="630" width="270" height="110" as="geometry" />
        </mxCell>
        <mxCell id="J5jHvOlifS9xlVqefVMf-39" value="-path : String&amp;nbsp;&lt;br&gt;- Flag : String&amp;nbsp;&lt;br&gt;- endFile : String&amp;nbsp;&lt;br&gt;-fileContent : ArrayList&amp;lt;String&amp;gt;" style="rounded=0;whiteSpace=wrap;html=1;" vertex="1" parent="1">
          <mxGeometry x="290" y="-130" width="240" height="70" as="geometry" />
        </mxCell>
        <mxCell id="J5jHvOlifS9xlVqefVMf-43" value="&lt;div style=&quot;text-align: left;&quot;&gt;&lt;div style=&quot;border-color: var(--border-color);&quot;&gt;&lt;br class=&quot;Apple-interchange-newline&quot;&gt;&lt;br style=&quot;border-color: var(--border-color);&quot;&gt;&lt;/div&gt;&lt;div style=&quot;border-color: var(--border-color);&quot;&gt;- visitFile(Path file, BasicFileAtributes attr) :&amp;nbsp;&lt;span style=&quot;border-color: var(--border-color); background-color: initial;&quot;&gt;FileVisitResult&lt;/span&gt;&lt;/div&gt;&lt;div style=&quot;border-color: var(--border-color);&quot;&gt;&lt;span style=&quot;border-color: var(--border-color); background-color: initial;&quot;&gt;&lt;br style=&quot;border-color: var(--border-color);&quot;&gt;&lt;/span&gt;&lt;/div&gt;&lt;div style=&quot;border-color: var(--border-color);&quot;&gt;&lt;span style=&quot;border-color: var(--border-color); background-color: initial;&quot;&gt;&amp;nbsp;- postVisitDirectory(Path dir, IOException):&amp;nbsp;&lt;/span&gt;&lt;/div&gt;&lt;span style=&quot;text-align: center;&quot;&gt;FileVisitResult&lt;/span&gt;&lt;div style=&quot;border-color: var(--border-color);&quot;&gt;&lt;span style=&quot;border-color: var(--border-color); background-color: initial;&quot;&gt;&lt;br style=&quot;border-color: var(--border-color);&quot;&gt;&lt;/span&gt;&lt;/div&gt;&lt;div style=&quot;border-color: var(--border-color);&quot;&gt;&lt;span style=&quot;border-color: var(--border-color); background-color: initial;&quot;&gt;preVisitDirectory(Path dir, BasicFileAttributes attrs) :&amp;nbsp;&lt;/span&gt;&lt;/div&gt;&lt;span style=&quot;text-align: center;&quot;&gt;FileVisitResult&amp;nbsp;&lt;/span&gt;&lt;div style=&quot;border-color: var(--border-color);&quot;&gt;&lt;span style=&quot;border-color: var(--border-color); background-color: initial;&quot;&gt;&lt;br style=&quot;border-color: var(--border-color);&quot;&gt;&lt;/span&gt;&lt;/div&gt;&lt;div style=&quot;border-color: var(--border-color);&quot;&gt;&lt;span style=&quot;border-color: var(--border-color); background-color: initial;&quot;&gt;- visitFileFailed(Path file, IOException exc) :&amp;nbsp;&lt;/span&gt;&lt;/div&gt;&lt;span style=&quot;text-align: center;&quot;&gt;FileVisitResult&amp;nbsp;&lt;/span&gt;&lt;br&gt;&lt;/div&gt;" style="rounded=0;whiteSpace=wrap;html=1;" vertex="1" parent="1">
          <mxGeometry x="60" y="730" width="270" height="210" as="geometry" />
        </mxCell>
        <mxCell id="J5jHvOlifS9xlVqefVMf-50" value="Sorter class" style="rounded=0;whiteSpace=wrap;html=1;" vertex="1" parent="1">
          <mxGeometry x="360" y="440" width="290" height="110" as="geometry" />
        </mxCell>
        <mxCell id="J5jHvOlifS9xlVqefVMf-51" value="- sortbythis() : ArrayList&amp;lt;Path&amp;gt;" style="rounded=0;whiteSpace=wrap;html=1;" vertex="1" parent="1">
          <mxGeometry x="361" y="551" width="290" height="60" as="geometry" />
        </mxCell>
        <mxCell id="J5jHvOlifS9xlVqefVMf-52" value="" style="endArrow=classic;html=1;rounded=0;entryX=0.25;entryY=0;entryDx=0;entryDy=0;exitX=0.5;exitY=1;exitDx=0;exitDy=0;" edge="1" parent="1" source="J5jHvOlifS9xlVqefVMf-39" target="J5jHvOlifS9xlVqefVMf-50">
          <mxGeometry width="50" height="50" relative="1" as="geometry">
            <mxPoint x="410" y="-20" as="sourcePoint" />
            <mxPoint x="430" y="420" as="targetPoint" />
          </mxGeometry>
        </mxCell>
        <mxCell id="J5jHvOlifS9xlVqefVMf-57" value="- ArrayList&amp;lt;Path&amp;gt; unsortedFiles&lt;br&gt;- String Flag&amp;nbsp;" style="rounded=0;whiteSpace=wrap;html=1;" vertex="1" parent="1">
          <mxGeometry x="360" y="510" width="290" height="40" as="geometry" />
        </mxCell>
        <mxCell id="J5jHvOlifS9xlVqefVMf-59" value="" style="endArrow=block;dashed=1;endFill=0;endSize=12;html=1;rounded=0;exitX=0.5;exitY=0;exitDx=0;exitDy=0;" edge="1" parent="1" source="J5jHvOlifS9xlVqefVMf-1" target="J5jHvOlifS9xlVqefVMf-6">
          <mxGeometry width="160" relative="1" as="geometry">
            <mxPoint x="250" y="430" as="sourcePoint" />
            <mxPoint x="260" y="430" as="targetPoint" />
          </mxGeometry>
        </mxCell>
        <mxCell id="J5jHvOlifS9xlVqefVMf-61" value="" style="endArrow=open;endFill=1;endSize=12;html=1;rounded=0;entryX=0.5;entryY=0;entryDx=0;entryDy=0;exitX=0.75;exitY=1;exitDx=0;exitDy=0;" edge="1" parent="1" source="J5jHvOlifS9xlVqefVMf-39">
          <mxGeometry width="160" relative="1" as="geometry">
            <mxPoint x="530" as="sourcePoint" />
            <mxPoint x="870.0000000000002" y="330" as="targetPoint" />
          </mxGeometry>
        </mxCell>
        <mxCell id="J5jHvOlifS9xlVqefVMf-62" value="Use" style="endArrow=open;endSize=12;dashed=1;html=1;rounded=0;exitX=0.5;exitY=1;exitDx=0;exitDy=0;" edge="1" parent="1" source="J5jHvOlifS9xlVqefVMf-51">
          <mxGeometry width="160" relative="1" as="geometry">
            <mxPoint x="490" y="590" as="sourcePoint" />
            <mxPoint x="506" y="820" as="targetPoint" />
          </mxGeometry>
        </mxCell>
        <mxCell id="J5jHvOlifS9xlVqefVMf-67" value="«interface»&lt;br&gt;&lt;b&gt;Comparator&amp;lt;Path&amp;gt;&lt;/b&gt;" style="html=1;whiteSpace=wrap;" vertex="1" parent="1">
          <mxGeometry x="440" y="820" width="121" height="90" as="geometry" />
        </mxCell>
        <mxCell id="J5jHvOlifS9xlVqefVMf-69" value="SortByName" style="swimlane;fontStyle=1;align=center;verticalAlign=top;childLayout=stackLayout;horizontal=1;startSize=26;horizontalStack=0;resizeParent=1;resizeParentMax=0;resizeLast=0;collapsible=1;marginBottom=0;whiteSpace=wrap;html=1;" vertex="1" parent="1">
          <mxGeometry x="310" y="1010" width="200" height="60" as="geometry" />
        </mxCell>
        <mxCell id="J5jHvOlifS9xlVqefVMf-71" value="" style="line;strokeWidth=1;fillColor=none;align=left;verticalAlign=middle;spacingTop=-1;spacingLeft=3;spacingRight=3;rotatable=0;labelPosition=right;points=[];portConstraint=eastwest;strokeColor=inherit;" vertex="1" parent="J5jHvOlifS9xlVqefVMf-69">
          <mxGeometry y="26" width="200" height="8" as="geometry" />
        </mxCell>
        <mxCell id="J5jHvOlifS9xlVqefVMf-72" value="+ compare(Path f1. Path f2): int" style="text;strokeColor=none;fillColor=none;align=left;verticalAlign=top;spacingLeft=4;spacingRight=4;overflow=hidden;rotatable=0;points=[[0,0.5],[1,0.5]];portConstraint=eastwest;whiteSpace=wrap;html=1;" vertex="1" parent="J5jHvOlifS9xlVqefVMf-69">
          <mxGeometry y="34" width="200" height="26" as="geometry" />
        </mxCell>
        <mxCell id="J5jHvOlifS9xlVqefVMf-73" value="return" style="html=1;verticalAlign=bottom;endArrow=open;dashed=1;endSize=8;edgeStyle=elbowEdgeStyle;elbow=vertical;curved=0;rounded=0;exitX=0.5;exitY=0;exitDx=0;exitDy=0;entryX=0;entryY=0.5;entryDx=0;entryDy=0;" edge="1" parent="1" source="J5jHvOlifS9xlVqefVMf-69" target="J5jHvOlifS9xlVqefVMf-67">
          <mxGeometry relative="1" as="geometry">
            <mxPoint x="610" y="710" as="sourcePoint" />
            <mxPoint x="530" y="710" as="targetPoint" />
            <Array as="points">
              <mxPoint x="400" y="870" />
            </Array>
          </mxGeometry>
        </mxCell>
        <mxCell id="J5jHvOlifS9xlVqefVMf-74" value="SortByCreation" style="swimlane;fontStyle=1;align=center;verticalAlign=top;childLayout=stackLayout;horizontal=1;startSize=26;horizontalStack=0;resizeParent=1;resizeParentMax=0;resizeLast=0;collapsible=1;marginBottom=0;whiteSpace=wrap;html=1;" vertex="1" parent="1">
          <mxGeometry x="530" y="1010" width="200" height="60" as="geometry" />
        </mxCell>
        <mxCell id="J5jHvOlifS9xlVqefVMf-75" value="" style="line;strokeWidth=1;fillColor=none;align=left;verticalAlign=middle;spacingTop=-1;spacingLeft=3;spacingRight=3;rotatable=0;labelPosition=right;points=[];portConstraint=eastwest;strokeColor=inherit;" vertex="1" parent="J5jHvOlifS9xlVqefVMf-74">
          <mxGeometry y="26" width="200" height="8" as="geometry" />
        </mxCell>
        <mxCell id="J5jHvOlifS9xlVqefVMf-76" value="+ compare(Path f1. Path f2): int" style="text;strokeColor=none;fillColor=none;align=left;verticalAlign=top;spacingLeft=4;spacingRight=4;overflow=hidden;rotatable=0;points=[[0,0.5],[1,0.5]];portConstraint=eastwest;whiteSpace=wrap;html=1;" vertex="1" parent="J5jHvOlifS9xlVqefVMf-74">
          <mxGeometry y="34" width="200" height="26" as="geometry" />
        </mxCell>
        <mxCell id="J5jHvOlifS9xlVqefVMf-77" value="SortByModi" style="swimlane;fontStyle=1;align=center;verticalAlign=top;childLayout=stackLayout;horizontal=1;startSize=26;horizontalStack=0;resizeParent=1;resizeParentMax=0;resizeLast=0;collapsible=1;marginBottom=0;whiteSpace=wrap;html=1;" vertex="1" parent="1">
          <mxGeometry x="740" y="1010" width="200" height="60" as="geometry" />
        </mxCell>
        <mxCell id="J5jHvOlifS9xlVqefVMf-78" value="" style="line;strokeWidth=1;fillColor=none;align=left;verticalAlign=middle;spacingTop=-1;spacingLeft=3;spacingRight=3;rotatable=0;labelPosition=right;points=[];portConstraint=eastwest;strokeColor=inherit;" vertex="1" parent="J5jHvOlifS9xlVqefVMf-77">
          <mxGeometry y="26" width="200" height="8" as="geometry" />
        </mxCell>
        <mxCell id="J5jHvOlifS9xlVqefVMf-79" value="+ compare(Path f1. Path f2): int" style="text;strokeColor=none;fillColor=none;align=left;verticalAlign=top;spacingLeft=4;spacingRight=4;overflow=hidden;rotatable=0;points=[[0,0.5],[1,0.5]];portConstraint=eastwest;whiteSpace=wrap;html=1;" vertex="1" parent="J5jHvOlifS9xlVqefVMf-77">
          <mxGeometry y="34" width="200" height="26" as="geometry" />
        </mxCell>
        <mxCell id="J5jHvOlifS9xlVqefVMf-80" value="return" style="html=1;verticalAlign=bottom;endArrow=open;dashed=1;endSize=8;edgeStyle=elbowEdgeStyle;elbow=vertical;curved=0;rounded=0;exitX=0.5;exitY=0;exitDx=0;exitDy=0;entryX=0.451;entryY=1.041;entryDx=0;entryDy=0;entryPerimeter=0;" edge="1" parent="1" source="J5jHvOlifS9xlVqefVMf-74" target="J5jHvOlifS9xlVqefVMf-67">
          <mxGeometry relative="1" as="geometry">
            <mxPoint x="420" y="1020" as="sourcePoint" />
            <mxPoint x="450" y="875" as="targetPoint" />
            <Array as="points">
              <mxPoint x="490" y="970" />
            </Array>
          </mxGeometry>
        </mxCell>
        <mxCell id="J5jHvOlifS9xlVqefVMf-81" value="return" style="html=1;verticalAlign=bottom;endArrow=open;dashed=1;endSize=8;edgeStyle=elbowEdgeStyle;elbow=vertical;curved=0;rounded=0;entryX=1;entryY=0.5;entryDx=0;entryDy=0;" edge="1" parent="1" target="J5jHvOlifS9xlVqefVMf-67">
          <mxGeometry relative="1" as="geometry">
            <mxPoint x="830" y="1000" as="sourcePoint" />
            <mxPoint x="460" y="885" as="targetPoint" />
            <Array as="points">
              <mxPoint x="420" y="890" />
            </Array>
          </mxGeometry>
        </mxCell>
        <mxCell id="J5jHvOlifS9xlVqefVMf-83" value="&lt;p style=&quot;margin:0px;margin-top:4px;text-align:center;&quot;&gt;&lt;b&gt;Processor Class&lt;/b&gt;&lt;/p&gt;&lt;hr size=&quot;1&quot;&gt;&lt;p style=&quot;margin:0px;margin-left:4px;&quot;&gt;+ lines: ArrayList&amp;lt;String&amp;gt;&amp;nbsp;&lt;/p&gt;&lt;hr size=&quot;1&quot;&gt;&lt;p style=&quot;margin:0px;margin-left:4px;&quot;&gt;+ Filter(ArrayList&amp;lt;Path&amp;gt; sortedLists):&amp;nbsp; ArrayList&amp;lt;String&amp;gt;&lt;/p&gt;&lt;p style=&quot;margin:0px;margin-left:4px;&quot;&gt;&lt;br&gt;&lt;/p&gt;&lt;p style=&quot;margin:0px;margin-left:4px;&quot;&gt;+ fileWriter(ArrayList&amp;lt;String&amp;gt; content, File endFile) : File&lt;/p&gt;" style="verticalAlign=top;align=left;overflow=fill;fontSize=12;fontFamily=Helvetica;html=1;whiteSpace=wrap;" vertex="1" parent="1">
          <mxGeometry x="700" y="330" width="330" height="180" as="geometry" />
        </mxCell>
      </root>
    </mxGraphModel>
  </diagram>
</mxfile>
